# File created by Blade
# Date/Time:  Fri Jan 16 17:18:57 2015
#---------------------------------------------------------
:version 1.10
:name HOM
:units
  mass 1.0
  length 1.000000
  angle deg
:documentation
     Acclaim Skeleton File
:root
   axis xyz
   order TX TY TZ RX RY RZ
   position 0.000000 0.000000 0.000000
   orientation 0 0 0
:bonedata
   begin
      id 1
      name Spine_dum
      direction 0.000000 1.000000 0.000000
      length 7.170412
      axis 0.0 0.0 0.0 xyz
   end
   begin
      id 2
      name LeftUpLeg_dum
      direction 1.000000 0.000000 0.000000
      length 4.318350
      axis 0.0 0.0 0.0 xyz
   end
   begin
      id 3
      name RightUpLeg_dum
      direction -1.000000 0.000000 0.000000
      length 4.318350
      axis 0.0 0.0 0.0 xyz
   end
   begin
      id 4
      name Spine
      direction 0.000000 1.000000 0.000000
      length 0.000000
      axis 0.0 0.0 0.0 xyz
      dof rx ry rz
   end
   begin
      id 5
      name Spine_dum1
      direction 0.000000 1.000000 0.000000
      length 14.276153
      axis 0.0 0.0 0.0 xyz
   end
   begin
      id 6
      name Spine_dum2
      direction 0.000000 1.000000 0.000000
      length 10.718243
      axis 0.0 0.0 0.0 xyz
   end
   begin
      id 7
      name Spine_dum3
      direction 0.000000 1.000000 0.000000
      length 10.718243
      axis 0.0 0.0 0.0 xyz
   end
   begin
      id 8
      name Head
      direction 0.000000 1.000000 0.000000
      length 4.527550
      axis 0.0 0.0 0.0 xyz
      dof rx ry rz
   end
   begin
      id 9
      name LeftShoulder
      direction 1.000000 0.000000 0.000000
      length 7.058872
      axis 0.0 0.0 -90.0 xyz
      dof rx ry rz
   end
   begin
      id 10
      name LeftArm
      direction 1.000000 0.000000 0.000000
      length 10.955525
      axis 0.0 0.0 -90.0 xyz
      dof rx ry rz
   end
   begin
      id 11
      name LeftForeArm
      direction 1.000000 0.000000 0.000000
      length 8.193716
      axis 0.0 0.0 -90.0 xyz
      dof ry rz rx
   end
   begin
      id 12
      name LeftHand
      direction 0.000000 0.000000 0.000000
      length 0.000000
      axis 0.0 0.0 -90.0 xyz
      dof rx ry rz
   end
   begin
      id 13
      name LeftHand_dum1
      direction 0.000000 0.000000 0.000000
      length 0.000000
      axis 0.0 0.0 -90.0 xyz
   end
   begin
      id 14
      name LeftHand_dum2
      direction 1.000000 0.000000 0.000000
      length 3.937000
      axis 0.0 0.0 -90.0 xyz
   end
   begin
      id 15
      name LeftHandThumb1
      direction 0.000000 0.000000 1.000000
      length 3.937000
      axis 0.0 0.0 -90.0 xyz
      dof rx rz ry
   end
   begin
      id 16
      name RightShoulder
      direction -1.000000 0.000000 0.000000
      length 7.058872
      axis 0.0 0.0 90.0 xyz
      dof rx ry rz
   end
   begin
      id 17
      name RightArm
      direction -1.000000 0.000000 0.000000
      length 10.955525
      axis 0.0 0.0 90.0 xyz
      dof rx ry rz
   end
   begin
      id 18
      name RightForeArm
      direction -1.000000 0.000000 0.000000
      length 8.193716
      axis 0.0 0.0 90.0 xyz
      dof ry rz rx
   end
   begin
      id 19
      name RightHand
      direction 0.000000 0.000000 0.000000
      length 0.000000
      axis 0.0 0.0 90.0 xyz
      dof rx ry rz
   end
   begin
      id 20
      name RightHand_dum1
      direction 0.000000 0.000000 0.000000
      length 0.000000
      axis 0.0 0.0 90.0 xyz
   end
   begin
      id 21
      name RightHand_dum2
      direction -1.000000 0.000000 0.000000
      length 3.937000
      axis 0.0 0.0 90.0 xyz
   end
   begin
      id 22
      name RightHandThumb1
      direction 0.000000 0.000000 1.000000
      length 3.937000
      axis 0.0 0.0 90.0 xyz
      dof rx rz ry
   end
   begin
      id 23
      name LeftUpLeg
      direction 0.000000 -1.000000 0.000000
      length 17.323638
      axis 0.0 0.0 0.0 xyz
      dof rx ry rz
   end
   begin
      id 24
      name LeftLeg
      direction 0.000000 -1.000000 0.000000
      length 16.270368
      axis 0.0 0.0 0.0 xyz
      dof rx ry rz
   end
   begin
      id 25
      name LeftFoot
      direction 0.000000 -0.258819 0.965926
      length 4.922846
      axis 15.0 0.0 0.0 xyz
      dof rx ry rz
   end
   begin
      id 26
      name LeftToeBase
      direction 0.000000 0.000000 1.000000
      length 2.952750
      axis 0.0 0.0 0.0 xyz
      dof rx ry rz
   end
   begin
      id 27
      name RightUpLeg
      direction 0.000000 -1.000000 0.000000
      length 17.323638
      axis 0.0 0.0 0.0 xyz
      dof rx ry rz
   end
   begin
      id 28
      name RightLeg
      direction 0.000000 -1.000000 0.000000
      length 16.270368
      axis 0.0 0.0 0.0 xyz
      dof rx ry rz
   end
   begin
      id 29
      name RightFoot
      direction 0.000000 -0.258819 0.965926
      length 4.922846
      axis 15.0 0.0 0.0 xyz
      dof rx ry rz
   end
   begin
      id 30
      name RightToeBase
      direction 0.000000 0.000000 1.000000
      length 2.952750
      axis 0.0 0.0 0.0 xyz
      dof rx ry rz
   end
:hierarchy
   begin
      root Spine_dum LeftUpLeg_dum RightUpLeg_dum
      Spine_dum Spine
      LeftUpLeg_dum LeftUpLeg
      RightUpLeg_dum RightUpLeg
      Spine Spine_dum1 Spine_dum2 Spine_dum3
      Spine_dum1 Head
      Spine_dum2 LeftShoulder
      Spine_dum3 RightShoulder
      LeftShoulder LeftArm
      LeftArm LeftForeArm
      LeftForeArm LeftHand
      LeftHand LeftHand_dum1 LeftHand_dum2
      LeftHand_dum1 LeftHandThumb1
      RightShoulder RightArm
      RightArm RightForeArm
      RightForeArm RightHand
      RightHand RightHand_dum1 RightHand_dum2
      RightHand_dum1 RightHandThumb1
      LeftUpLeg LeftLeg
      LeftLeg LeftFoot
      LeftFoot LeftToeBase
      RightUpLeg RightLeg
      RightLeg RightFoot
      RightFoot RightToeBase
   end

# File created by Blade
# Date/Time:  Fri Jan 16 17:19:08 2015
# Frame Rate: 120.000 fps
#------------------------------------------------------
:FULLY-SPECIFIED
:DEGREES
2177
root -5.290720 35.154556 -9.073878 -0.287322 -7.679471 -6.673768
Spine -4.165961 0.867713 9.365583
Head 6.982484 -7.333005 -9.122906
LeftShoulder -18.778209 13.371455 -15.477124
LeftArm 21.204785 -6.546401 -72.482986
LeftForeArm 14.123132 -0.000000 9.352545
LeftHand 0.466975 -0.000000 -6.112710
LeftHandThumb1 -26.253704 0.000000 33.147579
RightShoulder -2.419817 13.372689 -5.803297
RightArm -25.215294 59.575383 26.713385
RightForeArm 18.385261 -0.000000 68.095535
RightHand 9.822676 -0.000000 -8.181695
RightHandThumb1 -24.326973 -0.000000 -32.862282
LeftUpLeg 12.729982 15.564004 7.574467
LeftLeg -9.626156 -0.000000 0.000000
LeftFoot -17.196326 29.111984 -8.436633
LeftToeBase 22.815740 -0.000000 -0.000000
RightUpLeg 8.607288 -2.923704 4.586824
RightLeg -5.322948 -0.000000 0.000000
RightFoot -4.533583 -27.431501 4.136283
RightToeBase 13.445843 -0.000000 -0.000000
2178
root -5.289289 35.154938 -9.075743 -0.295869 -7.680483 -6.674974
Spine -4.149130 0.856333 9.307800
Head 6.950527 -7.403666 -9.051253
LeftShoulder -18.819819 13.390432 -15.500802
LeftArm 21.215774 -6.619608 -72.536298
LeftForeArm 14.249423 -0.000000 9.325653
LeftHand 0.418530 -0.000000 -6.252205
LeftHandThumb1 -26.253704 0.000000 33.147579
RightShoulder -2.386088 13.322847 -5.817562
RightArm -24.740622 59.042755 27.099854
RightForeArm 16.986219 -0.000000 66.879308
RightHand 9.559374 -0.000000 -8.290747
RightHandThumb1 -24.326973 -0.000000 -32.862282
LeftUpLeg 12.733805 15.552594 7.571869
LeftLeg -9.621931 -0.000000 0.000000
LeftFoot -17.196012 29.132281 -8.429803
LeftToeBase 22.800603 -0.000000 -0.000000
RightUpLeg 8.608392 -2.923883 4.584122
RightLeg -5.312703 -0.000000 0.000000
RightFoot -4.533679 -27.425094 4.140222
RightToeBase 13.412531 -0.000000 -0.000000
2179
root -5.289849 35.154858 -9.076139 -0.306734 -7.679362 -6.674013
Spine -4.134268 0.846638 9.230916
Head 6.919600 -7.494728 -8.957764
LeftShoulder -18.851426 13.452398 -15.515586
LeftArm 21.224069 -6.622589 -72.556910
LeftForeArm 14.195927 -0.000000 9.368256
LeftHand 0.402953 -0.000000 -6.132365
LeftHandThumb1 -26.253704 0.000000 33.147579
RightShoulder -2.349762 13.329129 -5.873946
RightArm -24.387677 58.487105 27.464900
RightForeArm 15.892253 -0.000000 65.600467
RightHand 9.228468 -0.000000 -8.469506
RightHandThumb1 -24.326973 -0.000000 -32.862282
LeftUpLeg 12.742319 15.545794 7.574114
LeftLeg -9.619716 -0.000000 0.000000
LeftFoot -17.208981 29.133762 -8.442554
LeftToeBase 22.793753 -0.000000 -0.000000
RightUpLeg 8.617684 -2.934452 4.583941
RightLeg -5.313677 -0.000000 0.000000
RightFoot -4.534122 -27.420456 4.152157
RightToeBase 13.358656 -0.000000 -0.000000
2180
root -5.292558 35.154149 -9.076872 -0.306968 -7.669892 -6.666287
Spine -4.141353 0.828069 9.134557
Head 6.902658 -7.567667 -8.848536
LeftShoulder -18.871395 13.519949 -15.508116
LeftArm 21.219002 -6.649443 -72.587138
LeftForeArm 14.188113 -0.000000 9.385032
LeftHand 0.485492 0.000000 -6.068614
LeftHandThumb1 -26.253704 0.000000 33.147579
RightShoulder -2.336678 13.356686 -5.904608
RightArm -23.948486 57.875570 27.916404
RightForeArm 15.039181 -0.000000 64.222725
RightHand 8.797860 -0.000000 -8.638160
RightHandThumb1 -24.326973 -0.000000 -32.862282
LeftUpLeg 12.738026 15.522712 7.568525
LeftLeg -9.620399 -0.000000 0.000000
LeftFoot -17.198277 29.142024 -8.446670
LeftToeBase 22.776618 -0.000000 -0.000000
RightUpLeg 8.623242 -2.928542 4.583527
RightLeg -5.325600 -0.000000 0.000000
RightFoot -4.537892 -27.436535 4.139455
RightToeBase 13.397402 -0.000000 -0.000000
2181
root -5.292915 35.154230 -9.078281 -0.324225 -7.678780 -6.674366
Spine -4.105927 0.826225 9.074010
Head 6.850284 -7.644672 -8.761927
LeftShoulder -18.904488 13.580470 -15.537453
LeftArm 21.250374 -6.678018 -72.620565
LeftForeArm 14.196401 0.000000 9.403355
LeftHand 0.446735 -0.000000 -6.100124
LeftHandThumb1 -26.253704 0.000000 33.147579
RightShoulder -2.328515 13.368809 -5.939635
RightArm -23.477920 57.260048 28.348349
RightForeArm 14.445933 0.000000 62.761736
RightHand 8.530847 -0.000000 -8.744359
RightHandThumb1 -24.326973 -0.000000 -32.862282
LeftUpLeg 12.755121 15.524926 7.581145
LeftLeg -9.613941 -0.000000 0.000000
LeftFoot -17.201708 29.151080 -8.421711
LeftToeBase 22.772781 -0.000000 -0.000000
RightUpLeg 8.636954 -2.920117 4.590142
RightLeg -5.321454 -0.000000 0.000000
RightFoot -4.532588 -27.433417 4.143256
RightToeBase 13.403628 -0.000000 -0.000000
2182
root -5.294303 35.154157 -9.078752 -0.330521 -7.674699 -6.677916
Spine -4.101833 0.818391 8.989444
Head 6.827456 -7.714023 -8.640466
LeftShoulder -18.922112 13.625925 -15.535930
LeftArm 21.241678 -6.658215 -72.635415
LeftForeArm 14.199694 -0.000000 9.409658
LeftHand 0.404276 0.000000 -6.147275
LeftHandThumb1 -26.253704 0.000000 33.147579
RightShoulder -2.315919 13.345406 -5.964089
RightArm -23.024057 56.710988 28.771810
RightForeArm 14.118483 -0.000000 61.216812
RightHand 8.050451 -0.000000 -8.689461
RightHandThumb1 -24.326973 -0.000000 -32.862282
LeftUpLeg 12.758748 15.494091 7.592022
LeftLeg -9.600994 -0.000000 0.000000
LeftFoot -17.168595 29.141086 -8.339094
LeftToeBase 22.779577 -0.000000 -0.000000
RightUpLeg 8.643464 -2.922529 4.595367
RightLeg -5.320978 -0.000000 0.000000
RightFoot -4.532313 -27.431592 4.123183
RightToeBase 13.434146 -0.000000 -0.000000
2183
root -5.295119 35.153899 -9.077950 -0.343779 -7.677355 -6.670055
Spine -4.090550 0.805834 8.893804
Head 6.793786 -7.783999 -8.538102
LeftShoulder -18.949923 13.684772 -15.534317
LeftArm 21.238906 -6.669123 -72.668228
LeftForeArm 14.230559 -0.000000 9.419301
LeftHand 0.445556 -0.000000 -6.044475
LeftHandThumb1 -26.253704 0.000000 33.147579
RightShoulder -2.294632 13.302913 -5.975767
RightArm -22.532578 56.249889 29.225617
RightForeArm 13.949554 -0.000000 59.545156
RightHand 7.850299 -0.000000 -8.547786
RightHandThumb1 -24.326973 -0.000000 -32.862282
LeftUpLeg 12.772706 15.506685 7.591283
LeftLeg -9.597944 -0.000000 0.000000
LeftFoot -17.165024 29.125082 -8.333136
LeftToeBase 22.818289 -0.000000 -0.000000
RightUpLeg 8.659448 -2.909575 4.589705
RightLeg -5.327385 -0.000000 0.000000
RightFoot -4.534573 -27.449964 4.126433
RightToeBase 13.403985 -0.000000 -0.000000
2184
root -5.298462 35.153167 -9.077982 -0.352229 -7.669449 -6.680702
Spine -4.083700 0.772869 8.818119
Head 6.770941 -7.839724 -8.446687
LeftShoulder -18.970121 13.720989 -15.514990
LeftArm 21.204694 -6.673382 -72.702641
LeftForeArm 14.285365 -0.000000 9.415102
LeftHand 0.430706 -0.000000 -6.102636
LeftHandThumb1 -26.253704 0.000000 33.147579
RightShoulder -2.253315 13.279563 -5.985101
RightArm -22.107404 55.704287 29.622347
RightForeArm 13.921087 -0.000000 57.806732
RightHand 7.600101 -0.000000 -8.428961
RightHandThumb1 -24.326973 -0.000000 -32.862282
LeftUpLeg 12.781084 15.461842 7.598073
LeftLeg -9.609061 -0.000000 0.000000
LeftFoot -17.220373 29.191625 -8.422799
LeftToeBase 22.791608 -0.000000 -0.000000
RightUpLeg 8.666002 -2.943627 4.602345
RightLeg -5.319123 -0.000000 0.000000
RightFoot -4.541247 -27.431647 4.122139
RightToeBase 13.396802 -0.000000 -0.000000
2185
root -5.299618 35.153084 -9.078720 -0.360872 -7.665939 -6.681299
Spine -4.073990 0.741018 8.741335
Head 6.737946 -7.900367 -8.375045
LeftShoulder -18.991447 13.781914 -15.515519
LeftArm 21.192949 -6.621932 -72.704734
LeftForeArm 14.197235 -0.000000 9.420576
LeftHand 0.477883 -0.000000 -5.977508
LeftHandThumb1 -26.253704 0.000000 33.147579
RightShoulder -2.189032 13.281263 -5.989221
RightArm -21.767861 55.236720 29.946402
RightForeArm 14.157708 -0.000000 56.041466
RightHand 7.278826 -0.000000 -8.185086
RightHandThumb1 -24.326973 -0.000000 -32.862282
LeftUpLeg 12.788148 15.500342 7.609446
LeftLeg -9.609029 -0.000000 0.000000
LeftFoot -17.206965 29.160089 -8.399797
LeftToeBase 22.831713 -0.000000 -0.000000
RightUpLeg 8.675833 -2.944616 4.605304
RightLeg -5.323370 -0.000000 0.000000
RightFoot -4.539462 -27.426672 4.127410
RightToeBase 13.393049 -0.000000 -0.000000
2186
root -5.303411 35.152711 -9.076071 -0.378484 -7.680018 -6.684725
Spine -4.066723 0.726921 8.664966
Head 6.735156 -7.968994 -8.307316
LeftShoulder -19.013505 13.819353 -15.503730
LeftArm 21.158712 -6.641690 -72.734488
LeftForeArm 14.281133 -0.000000 9.415232
LeftHand 0.451705 -0.000000 -5.929891
LeftHandThumb1 -26.253704 0.000000 33.147579
RightShoulder -2.117303 13.262767 -5.977358
RightArm -21.439018 54.746835 30.242393
RightForeArm 14.473398 -0.000000 54.181544
RightHand 7.180029 -0.000000 -7.967812
RightHandThumb1 -24.326973 -0.000000 -32.862282
LeftUpLeg 12.822043 15.530438 7.630844
LeftLeg -9.619324 -0.000000 0.000000
LeftFoot -17.207815 29.135038 -8.415302
LeftToeBase 22.803166 -0.000000 -0.000000
RightUpLeg 8.701241 -2.936243 4.610892
RightLeg -5.326581 -0.000000 0.000000
RightFoot -4.540294 -27.419380 4.096998
RightToeBase 13.433999 -0.000000 -0.000000
2187
root -5.306319 35.152405 -9.077332 -0.386114 -7.682647 -6.695849
Spine -4.052690 0.702971 8.601052
Head 6.701849 -8.026227 -8.240828
LeftShoulder -19.035044 13.854920 -15.502297
LeftArm 21.138587 -6.641789 -72.756058
LeftForeArm 14.239733 -0.000000 9.389188
LeftHand 0.483410 0.000000 -5.962443
LeftHandThumb1 -26.253704 0.000000 33.147579
RightShoulder -2.048041 13.303917 -5.963977
RightArm -21.132299 54.250361 30.524904
RightForeArm 14.741123 -0.000000 52.268115
RightHand 7.070524 -0.000000 -7.849921
RightHandThumb1 -24.326973 -0.000000 -32.862282
LeftUpLeg 12.833520 15.524103 7.646927
LeftLeg -9.626024 -0.000000 0.000000
LeftFoot -17.197274 29.157198 -8.372404
LeftToeBase 22.833102 -0.000000 -0.000000
RightUpLeg 8.709790 -2.908351 4.626708
RightLeg -5.327861 -0.000000 0.000000
RightFoot -4.551010 -27.435638 4.140109
RightToeBase 13.447920 -0.000000 -0.000000
